HIERARCHY
ROOT Hips
{
  OFFSET 0.0 0.0 0.0
  CHANNELS 6 XPOSITION YPOSITION ZPOSITION ZROTATION XROTATION YROTATION 
  JOINT LeftUpLeg
  {
    OFFSET 0.089458 -0.0866707 0.00101652
    CHANNELS 3 ZROTATION XROTATION YROTATION 
    JOINT LeftLeg
    {
      OFFSET 0.0 -0.444227 0.013727
      CHANNELS 3 ZROTATION XROTATION YROTATION 
      JOINT LeftFoot
      {
        OFFSET -0.00253549 -0.420924 -0.0146059
        CHANNELS 3 ZROTATION XROTATION YROTATION 
        End Site
        {
          OFFSET -0.0004 -0.0441509 0.084991
        }
      }
    }
  }
  JOINT Spine
  {
    OFFSET 0.0 0.118905 0.0
    CHANNELS 3 ZROTATION XROTATION YROTATION 
    JOINT Spine1
    {
      OFFSET 0.0 0.256574 0.00127663
      CHANNELS 3 ZROTATION XROTATION YROTATION 
      End Site
      {
        OFFSET -0.0029 0.2150836 0.02525291
      }
      JOINT RightArm
      {
        OFFSET -0.162727 -0.05365632 0.00102123
        CHANNELS 3 ZROTATION XROTATION YROTATION 
        JOINT RightForeArm
        {
          OFFSET -0.26364 0.00099144 -0.0142434
          CHANNELS 3 ZROTATION XROTATION YROTATION 
          End Site
          {
            OFFSET -0.220324 0.00085362 0.0102216
          }
        }
      }
      JOINT LeftArm
      {
        OFFSET 0.162727 -0.0536563199 0.00102123
        CHANNELS 3 ZROTATION XROTATION YROTATION 
        JOINT LeftForeArm
        {
          OFFSET 0.262597 0.00099144 -0.0142434
          CHANNELS 3 ZROTATION XROTATION YROTATION 
          End Site
          {
            OFFSET 0.220902 0.00085362 0.0102216
          }
        }
      }
    }
  }
  JOINT RightUpLeg
  {
    OFFSET -0.089458 -0.0866707 0.00101652
    CHANNELS 3 ZROTATION XROTATION YROTATION 
    JOINT RightLeg
    {
      OFFSET 0.0 -0.444227 0.013727
      CHANNELS 3 ZROTATION XROTATION YROTATION 
      JOINT RightFoot
      {
        OFFSET 0.00253549 -0.420924 -0.0146059
        CHANNELS 3 ZROTATION XROTATION YROTATION 
        End Site
        {
          OFFSET 0.0004 -0.0441509 0.084991
        }
      }
    }
  }
}
MOTION
Frames: 14
Frame Time: 0.033333
1.94808 1.04042610138 0.0368208 -3.75094010914 -0.367966009488 -92.8740026732 -1.26751000735 2.959230044 2.57722994344 -0.375092991721 7.36531997733 24.4940009298 -1.94238242966 -6.69999551915 -0.00473987239016 0.399086005533 5.72871999417 0.167182993882 -1.63095002933 -2.69379992823 0.504248000265 78.4420588438 -20.5332544848 3.65853362608 7.85672049849 39.5695022583 7.61840922193 -73.5667995879 -9.44004799433 0.722556320786 -4.12354998025 39.4698976096 -14.1567008663 -0.818541983048 2.29728012615 -4.08570987847 0.0337495021486 9.89578980538 -9.78137986791 2.88247536631 -9.06309839177 -0.0674790273279 
1.94798 1.04042610138 0.0368313 -3.76946998547 -0.369926994151 -92.8395990104 -1.25948005276 2.98317007048 2.5929500507 -0.392963994922 7.36666979347 24.4459010301 -1.93382249508 -6.7056957389 -0.00473992741854 0.456461969119 5.66036004586 0.17295199577 -1.72756999206 -2.60733976517 0.528341972809 78.4511020143 -20.5667309495 3.64838353809 7.88775004789 39.5562004649 7.57230032239 -73.5365964913 -9.51058677298 0.618726239622 -4.15870965966 39.5436978036 -14.0968999987 -0.826631968594 2.32790989604 -4.10415010857 0.0450823000959 9.90099014066 -9.81570925245 2.935395672 -9.07479850582 -0.0674812751538 
1.94778 1.04042610138 0.0368821 -3.79885986258 -0.37942800073 -92.7857019877 -1.26283997222 3.03206995607 2.60042996161 -0.4037349898 7.35392978312 24.3965990171 -2.01464262943 -6.72489540065 -0.00474012043475 0.550950005684 5.49827026535 0.18277399456 -1.85753995422 -2.38989983917 0.565408982548 78.4623376755 -20.6150579529 3.66128875364 7.93778972129 39.4700000624 7.50807007721 -73.5350801894 -9.67411686964 0.438896723605 -4.17176001673 39.6420013012 -14.0504000709 -0.849556004439 2.37340002313 -4.14357993688 0.0638830994826 9.91718964182 -9.83838035786 2.97046634551 -9.09469911574 -0.0674849970733 
1.94764 1.04042610138 0.0369453 -3.81657011621 -0.391833011645 -92.7208015302 -1.27962003947 3.05718989773 2.58458008076 -0.390616010673 7.35260984906 24.3558996274 -2.10513260409 -6.73799570348 -0.00474025050182 0.615247005292 5.39055988968 0.188671009134 -1.91782000219 -2.25501021981 0.585310979851 78.4527071087 -20.6710006173 3.65954534785 7.97258014361 39.3934985286 7.4658706072 -73.5902066461 -9.66468181707 0.344154929504 -4.09470011497 39.5775004098 -14.1497007761 -0.87174398068 2.4135500095 -4.1792996918 0.082552807929 9.90675994296 -9.8626796096 2.95912652394 -9.10179824361 -0.0674863644452 
1.94762 1.04042610138 0.0369592 -3.82489995879 -0.399972009134 -92.6275011461 -1.288579967 3.05104016616 2.56675008537 -0.375477990275 7.37325921847 24.2643989982 -2.07818259862 -6.73039541048 -0.00474016712549 0.617776950049 5.43488995183 0.182989999292 -1.89516981424 -2.35701994884 0.574377981424 78.4024300863 -20.7107471957 3.58985137822 7.98857047023 39.3825019241 7.44265052534 -73.6522384242 -9.32823011365 0.418747692234 -3.94696995341 39.3004986729 -14.3906997321 -0.879902001313 2.45401994755 -4.19942014844 0.100386998811 9.86787994488 -9.93559017145 2.95323633956 -9.09809798863 -0.0674856974345 
1.94755 1.04042610138 0.0369597 -3.84933026479 -0.410096030351 -92.5140995153 -1.29476000754 3.07408992017 2.55614002683 -0.369717019195 7.37090024188 24.13430097 -1.99492259263 -6.71309539509 -0.00474000245724 0.606040017013 5.53918011027 0.169164002205 -1.8746899189 -2.54523008029 0.554163983214 78.323527741 -20.6981045155 3.47822346218 7.9837799463 39.3731992064 7.4522802383 -73.6729270672 -8.9406672509 0.567169090281 -3.82722008868 39.0377003144 -14.5990000112 -0.89084999414 2.50602991709 -4.2257599192 0.119117005021 9.85440995807 -10.024999909 2.9700567476 -9.10729825344 -0.0674873783014 
1.94739 1.04042610138 0.0370416 -3.90138953976 -0.427262990458 -92.405697583 -1.32132997702 3.15237989632 2.53371993088 -0.350936987185 7.32854965393 24.0479998223 -1.99765253387 -6.70659518943 -0.00473994200939 0.642869037348 5.57962977119 0.155404986328 -1.91887996217 -2.58500995579 0.548667014954 78.2563186795 -20.6510069461 3.40748938281 7.92838967345 39.3801011126 7.53355009791 -73.6625041985 -8.84503777233 0.633071824674 -3.83110988141 39.000100123 -14.6071006156 -0.921729973068 2.57464002108 -4.27828023193 0.142646006196 9.8785896815 -10.0797993705 2.9760177952 -9.13919865196 -0.067493421418 
1.94733 1.04042610138 0.0372011 -3.95533992335 -0.436156990655 -92.2959022921 -1.35208994739 3.21243988412 2.4995698388 -0.311138995676 7.31444958217 24.0013991491 -2.07267277039 -6.71489557682 -0.00474002121691 0.70723700689 5.5777604338 0.138322990039 -1.96627998091 -2.48743984972 0.542505063745 78.2292233191 -20.6520622103 3.43458260881 7.81742044378 39.5808984289 7.64212961515 -73.6633033306 -8.94715422307 0.609390278161 -3.95667010269 39.0324991253 -14.4570003784 -0.950398091284 2.65181987804 -4.33396975245 0.174675991546 9.87756942199 -10.1380002662 2.97077861322 -9.1664980643 -0.0674985774104 
1.94748 1.04042610138 0.0373236 -3.97373020769 -0.425242028196 -92.1678977169 -1.34728000011 3.18092005521 2.48311015012 -0.284447016606 7.37827940751 23.9051993497 -2.10003258721 -6.71819541197 -0.00474005123239 0.73939401775 5.6094798323 0.108965996553 -1.95259014737 -2.42917001181 0.51084703022 78.2443043768 -20.748852821 3.55191650757 7.74637964622 40.0066002142 7.6330796145 -73.676854426 -8.89865475732 0.62372753892 -4.09594022119 38.8354003565 -14.3471999648 -0.948954039883 2.70497988068 -4.35642015736 0.209292003909 9.82514003615 -10.2529993075 2.98261831926 -9.15499773328 -0.0674964029556 
1.94771 1.04042610138 0.0373553 -3.94976008569 -0.416401015326 -92.0447972174 -1.31955999753 3.08941003448 2.48549004416 -0.293695999876 7.45865024347 23.7667992266 -2.05077262259 -6.70639497951 -0.00473993367176 0.750508976686 5.67171011272 0.0753626064247 -1.94851999496 -2.47966986921 0.474391002247 78.2873755497 -20.8751447264 3.69660296608 7.81095054709 40.3640001078 7.44982990793 -73.6581943491 -8.69954108263 0.73140072207 -4.1593598083 38.5142004655 -14.3536988898 -0.937110064975 2.69761992496 -4.35439970203 0.23365599571 9.78546005217 -10.3770995758 2.98897701194 -9.11429834357 -0.0674887456732 
1.94793 1.04042610138 0.0373588 -3.91358014677 -0.433935978556 -91.9600004189 -1.31991004472 3.01430997012 2.47249005973 -0.313632014723 7.48264042916 23.6916005514 -1.97448261121 -6.68719574464 -0.00473975066071 0.781825020504 5.7329598341 0.060158398559 -2.02086002256 -2.57211989472 0.471847023585 78.3315258925 -20.9283723906 3.79986859614 7.94682008515 40.4367996791 7.24176953921 -73.5920712878 -8.70442893676 0.850180006253 -4.17187997193 38.5161026731 -14.337600134 -0.951323048308 2.64181002237 -4.36753031382 0.248422010922 9.80428063843 -10.4426002362 2.95886633642 -9.09479815349 -0.0674849904032 
1.94819 1.04041610138 0.0373817 -3.9012196388 -0.459432994686 -91.9055979622 -1.34760998362 2.97466008166 2.44208995495 -0.315267017936 7.48494988687 23.6882998624 -1.89532263972 -6.6807954305 -0.00473968937911 0.809482964414 5.78419009485 0.0753427962081 -2.07196990124 -2.61680982246 0.499282986347 78.3543318941 -20.8967895958 3.86390887669 8.0072092027 40.4140995454 7.17136992566 -73.5320270948 -9.02821661568 0.893030905558 -4.20361004261 38.9521009686 -14.1942993501 -0.980070994359 2.59795017606 -4.39929026657 0.257102994594 9.84158030148 -10.472500243 2.93741698111 -9.11499843796 -0.0674888857455 
1.9485 1.04037610138 0.0374441 -3.92741981757 -0.457004008662 -91.8649993177 -1.35424988799 2.95568005318 2.43306001798 -0.303855986308 7.53263058369 23.6636001909 -1.8458925607 -6.69009558683 -0.0047397827606 0.818775009893 5.78774990407 0.109080002015 -2.02676984374 -2.54122993731 0.529466979671 78.3730192917 -20.8348449027 3.95066252443 7.97021945947 40.4774973612 7.21955008006 -73.5220755092 -9.3446148837 0.872717922967 -4.27079007574 39.3819999052 -14.015200691 -0.983809989321 2.60733016022 -4.41449042568 0.264289981107 9.85373974575 -10.5052006275 2.96098753705 -9.12659866049 -0.06749104686 
1.94875 1.04034610138 0.0375031 -3.98634001756 -0.43239400999 -91.8415990896 -1.33375996081 2.96710012947 2.45308997461 -0.292261980316 7.60821004195 23.6058014226 -1.87775261841 -6.70239547687 -0.00473989740306 0.88542500967 5.72281017299 0.134866007185 -2.02639994631 -2.35693008916 0.55895802896 78.4198880498 -20.7293662913 4.05065051747 7.92023015871 40.4036015446 7.32011010144 -73.520046943 -9.42839825293 0.846980969761 -4.35908990755 39.4703005908 -13.8951993899 -0.964121969039 2.66085984685 -4.40804998418 0.269783000664 9.85024951909 -10.5206001427 2.96365622002 -9.09559728562 -0.067485223857 
